# Blender 4.4.0
# www.blender.org
mtllib porta.mtl
o Door
v -3.000000 1.849513 3.050000
v -3.000000 0.150000 3.000000
v -3.000000 2.000000 2.950000
v -3.000000 0.000000 2.950000
v -4.000000 1.849513 3.000000
v -3.000000 1.849513 3.000000
v -4.000000 1.708000 3.050000
v -4.000000 1.849513 3.050000
v -3.217579 1.708000 3.050000
v -3.000000 1.708000 3.050000
v -3.000000 0.000000 3.000000
v -4.000000 0.000000 3.000000
v -3.000000 2.000000 3.000000
v -4.000000 2.000000 2.950000
v -4.000000 2.000000 3.000000
v -3.000000 0.929000 3.050000
v -3.000000 1.070513 3.050000
v -4.000000 0.150000 3.000000
v -4.000000 1.070513 3.050000
v -3.782421 1.070513 3.000000
v -3.000000 1.708000 3.000000
v -3.000000 1.070513 3.000000
v -3.782421 1.070513 3.050000
v -4.000000 0.000000 2.950000
v -4.000000 0.929000 3.050000
v -3.782421 0.291513 3.050000
v -3.000000 0.929000 3.000000
v -3.000000 0.291513 3.000000
v -3.000000 0.291513 3.050000
v -3.000000 0.150000 3.050000
v -4.000000 1.070513 3.000000
v -3.217579 1.708000 3.000000
v -4.000000 1.708000 3.000000
v -4.000000 0.150000 3.050000
v -4.000000 0.929000 3.000000
v -3.782421 0.291513 3.000000
v -4.000000 0.291513 3.000000
v -4.000000 0.291513 3.050000
v -3.217579 0.929000 3.000000
v -3.217579 0.929000 3.050000
vn 1.0000 -0.0000 -0.0000
vn -0.0000 1.0000 -0.0000
vn -0.0000 -0.0000 1.0000
vn -0.0000 -1.0000 -0.0000
vn 0.6316 -0.7753 -0.0000
vn -0.0000 -0.0000 -1.0000
vn -1.0000 -0.0000 -0.0000
vn -0.6316 0.7753 -0.0000
vt 0.509097 0.888603
vt 0.509097 0.966253
vt 0.481662 0.966253
vt 0.481662 0.888603
vt 0.509097 -0.048593
vt 0.536533 -0.048593
vt 0.536533 1.048827
vt 0.509097 1.048827
vt 0.509097 0.538808
vt 0.509097 0.461158
vt 0.509097 0.111363
vt 0.509097 0.033713
vt 0.774355 0.509097
vt 0.225645 0.509097
vt 0.225645 0.481662
vt 0.774355 0.481662
vt -0.007423 0.184475
vt 0.070227 0.184475
vt 0.070227 0.613797
vt 0.070227 0.733185
vt -0.007423 0.733185
vt 0.654967 0.481662
vt 0.654967 0.509097
vt 0.345033 0.481662
vt 0.345033 0.509097
vt 0.225645 0.536533
vt 0.774355 0.536533
vt 0.774355 -0.048593
vt 0.225645 -0.048593
vt 0.225645 1.048827
vt 0.774355 1.048827
vt 0.225645 0.966253
vt 0.774355 0.966253
vt 0.774355 0.538808
vt 0.774355 0.888603
vt 0.345033 0.538808
vt 0.481662 0.538808
vt 0.481662 0.461158
vt 0.774355 0.111363
vt 0.774355 0.461158
vt 0.345033 0.111363
vt 0.481662 0.111363
vt 0.481662 0.033713
vt 1.007423 0.733185
vt 0.925116 0.733185
vt 0.925116 0.184475
vt 1.007423 0.184475
vt 0.372027 0.404353
vt 0.371965 0.958135
vt 0.296564 0.865571
vt 0.296626 0.311789
vt 0.225645 0.538808
vt 0.654967 0.888603
vt 0.420022 0.184475
vt 0.497671 0.184475
vt 0.497672 0.613797
vt 0.497672 0.733185
vt 0.420022 0.733185
vt 0.420022 0.303863
vt 0.225645 0.111363
vt 0.654967 0.461158
vt 0.225645 0.033713
vt 0.774355 0.033713
vt 0.225645 0.888603
vt 0.225645 0.461158
vt 0.703436 0.134395
vt 0.703374 0.688177
vt 0.627973 0.595613
vt 0.628035 0.041831
s 0
usemtl _0048_PaleGoldenrod.002
f 21/1/1 6/2/1 1/3/1 10/4/1
f 11/5/1 4/6/1 3/7/1 13/8/1 6/2/1 21/1/1 22/9/1 27/10/1 28/11/1 2/12/1
f 6/13/2 5/14/2 8/15/2 1/16/2
f 8/17/3 7/18/3 9/19/3 10/20/3 1/21/3
f 10/16/4 9/22/4 32/23/4 21/13/4
f 10/16/5 23/24/5 20/25/5 21/13/5
f 24/26/4 4/27/4 11/13/4 12/14/4
f 4/28/6 24/29/6 14/30/6 3/31/6
f 3/27/2 14/26/2 15/14/2 13/13/2
f 15/30/3 5/32/3 6/33/3 13/31/3
f 22/34/3 21/35/3 20/36/3
f 27/10/1 22/9/1 17/37/1 16/38/1
f 28/39/3 27/40/3 36/41/3
f 2/12/1 28/11/1 29/42/1 30/43/1
f 11/44/3 2/45/3 18/46/3 12/47/3
f 8/3/7 5/2/7 33/1/7 7/4/7
f 33/14/4 32/23/4 9/22/4 7/15/4
f 23/48/3 10/49/3 9/50/3 19/51/3
f 19/15/8 9/22/8 32/23/8 31/14/8
f 21/35/6 20/36/6 31/52/6 32/53/6
f 22/13/2 20/25/2 23/24/2 17/16/2
f 19/15/2 23/24/2 20/25/2 31/14/2
f 24/6/7 12/5/7 18/12/7 37/11/7 35/10/7 31/9/7 33/1/7 5/2/7 15/8/7 14/7/7
f 19/54/3 25/55/3 40/56/3 16/57/3 17/58/3 23/59/3
f 16/16/5 26/24/5 36/25/5 27/13/5
f 16/16/4 40/22/4 39/23/4 27/13/4
f 27/40/6 36/41/6 37/60/6 39/61/6
f 28/13/2 36/25/2 26/24/2 29/16/2
f 38/60/3 34/62/3 30/63/3 29/39/3 26/41/3
f 18/14/4 2/13/4 30/16/4 34/15/4
f 33/64/3 31/52/3 32/53/3
f 19/37/7 31/9/7 35/10/7 25/38/7
f 38/42/7 37/11/7 18/12/7 34/43/7
f 35/65/3 37/60/3 39/61/3
f 35/14/4 39/23/4 40/22/4 25/15/4
f 26/66/3 16/67/3 40/68/3 38/69/3
f 38/15/2 26/24/2 36/25/2 37/14/2
f 38/15/8 40/22/8 39/23/8 37/14/8
o Door_Frame
v -4.306000 2.222000 3.100000
v -4.306000 2.222000 2.900000
v -4.204000 2.018000 2.900000
v -4.306000 2.018000 2.900000
v -4.306000 2.018000 3.100000
v -2.980000 2.018000 3.100000
v -2.674000 2.222000 3.100000
v -4.204000 -0.022000 2.900000
v -4.204000 -0.022000 3.100000
v -4.204000 2.018000 3.100000
v -4.000000 -0.022000 3.100000
v -2.776000 2.018000 2.900000
v -2.674000 2.018000 3.100000
v -2.674000 2.222000 2.900000
v -2.674000 2.018000 2.900000
v -2.980000 -0.022000 2.900000
v -4.000000 -0.022000 2.900000
v -4.000000 2.018000 2.900000
v -4.000000 2.018000 3.100000
v -2.980000 2.018000 2.900000
v -2.776000 -0.022000 3.100000
v -2.980000 -0.022000 3.100000
v -2.776000 2.018000 3.100000
v -2.776000 -0.022000 2.900000
vn -1.0000 -0.0000 -0.0000
vn -0.0000 -1.0000 -0.0000
vn -0.0000 -0.0000 1.0000
vn -0.0000 1.0000 -0.0000
vn -0.0000 -0.0000 -1.0000
vn 1.0000 -0.0000 -0.0000
vt 0.554871 0.857576
vt 0.445129 0.857576
vt 0.445129 0.969513
vt 0.554871 0.969513
vt 0.108221 0.554871
vt 0.108221 0.445129
vt 0.052253 0.445129
vt 0.052253 0.554871
vt 0.555968 0.117469
vt 0.555968 0.229406
vt 0.555968 0.789090
vt 0.555968 0.901027
vt 0.555968 0.956995
vt 0.444032 0.956995
vt 0.444032 0.061500
vt 0.555968 0.061500
vt 0.570129 0.947747
vt 0.570129 0.052253
vt 0.679871 0.052253
vt 0.679871 0.947747
vt 0.554871 -0.261792
vt 0.445129 -0.261792
vt 0.108221 -0.261792
vt 0.220158 -0.261792
vt 0.220158 0.857576
vt 0.108221 0.857576
vt 0.220158 0.445129
vt 0.220158 0.554871
vt 0.779842 0.554871
vt 0.779842 0.445129
vt 0.779842 -0.261792
vt 0.891779 -0.261792
vt 0.891779 0.857576
vt 0.779842 0.857576
vt 0.891779 0.445129
vt 0.891779 0.554871
vt 0.947747 0.554871
vt 0.947747 0.445129
s 0
usemtl _0048_PaleGoldenrod.002
f 44/70/9 45/71/9 41/72/9 42/73/9
f 43/74/10 50/75/10 45/76/10 44/77/10
f 50/78/11 59/79/11 46/80/11 63/81/11 53/82/11 47/83/11 41/84/11 45/85/11
f 54/86/12 42/87/12 41/88/12 47/89/12
f 58/79/13 43/78/13 44/85/13 42/84/13 54/83/13 55/82/13 52/81/13 60/80/13
f 48/90/9 49/91/9 50/71/9 43/70/9
f 49/92/11 51/93/11 59/94/11 50/95/11
f 59/96/10 58/97/10 60/98/10 46/99/10
f 62/100/11 61/101/11 63/102/11 46/103/11
f 63/104/10 52/105/10 55/106/10 53/107/10
f 53/71/14 55/70/14 54/73/14 47/72/14
f 57/93/13 48/92/13 43/95/13 58/94/13
f 64/101/13 56/100/13 60/103/13 52/102/13
f 51/96/10 49/75/10 48/74/10 57/97/10
f 51/91/14 57/90/14 58/70/14 59/71/14
f 56/90/9 62/91/9 46/71/9 60/70/9
f 61/104/10 62/99/10 56/98/10 64/105/10
f 61/91/14 64/90/14 52/70/14 63/71/14
